HIERARCHY
ROOT hip
{
  OFFSET 0 0 0
  CHANNELS 6 Xposition Yposition Zposition Zrotation Yrotation Xrotation
  JOINT abdomen
  {
    OFFSET 0 20.6881 -0.73152
    CHANNELS 3 Zrotation Xrotation Yrotation
    JOINT chest
    {
      OFFSET 0 11.7043 -0.48768
      CHANNELS 3 Zrotation Xrotation Yrotation
      JOINT neck
      {
        OFFSET 0 22.1894 -2.19456
        CHANNELS 3 Zrotation Xrotation Yrotation
        JOINT head
        {
          OFFSET -0.24384 7.07133 1.2192
          CHANNELS 3 Zrotation Xrotation Yrotation
          JOINT leftEye
          {
            OFFSET 4.14528 8.04674 8.04672
            CHANNELS 3 Zrotation Xrotation Yrotation
            End Site
            {
              OFFSET 1 0 0
            }
          }
          JOINT rightEye
          {
            OFFSET -3.6576 8.04674 8.04672
            CHANNELS 3 Zrotation Xrotation Yrotation
            End Site
            {
              OFFSET 1 0 0
            }
          }
        }
      }
      JOINT rCollar
      {
        OFFSET -2.68224 19.2634 -4.8768
        CHANNELS 3 Zrotation Xrotation Yrotation
        JOINT rShldr
        {
          OFFSET -8.77824 -1.95073 1.46304
          CHANNELS 3 Zrotation Xrotation Yrotation
          JOINT rForeArm
          {
            OFFSET -28.1742 -1.7115 0.48768
            CHANNELS 3 Zrotation Xrotation Yrotation
            JOINT rHand
            {
              OFFSET -22.5879 0.773209 7.07136
              CHANNELS 3 Zrotation Xrotation Yrotation
              JOINT rThumb1
              {
                OFFSET -1.2192 -0.487915 3.41376
                CHANNELS 3 Zrotation Xrotation Yrotation
                JOINT rThumb2
                {
                  OFFSET -3.37035 -0.52449 3.41376
                  CHANNELS 3 Zrotation Xrotation Yrotation
                  End Site
                  {
                    OFFSET -1.78271 -1.18214 1.43049
                  }
                }
              }
              JOINT rIndex1
              {
                OFFSET -7.75947 0.938293 5.60832
                CHANNELS 3 Zrotation Xrotation Yrotation
                JOINT rIndex2
                {
                  OFFSET -2.54057 -0.884171 1.56538
                  CHANNELS 3 Zrotation Xrotation Yrotation
                  End Site
                  {
                    OFFSET -1.62519 -0.234802 1.16502
                  }
                }
              }
              JOINT rMid1
              {
                OFFSET -8.24714 1.18213 3.41376
                CHANNELS 3 Zrotation Xrotation Yrotation
                JOINT rMid2
                {
                  OFFSET -3.10165 -0.590103 1.0647
                  CHANNELS 3 Zrotation Xrotation Yrotation
                  End Site
                  {
                    OFFSET -2.48547 -0.328903 0.83742
                  }
                }
              }
              JOINT rRing1
              {
                OFFSET -8.82822 0.546677 1.51678
                CHANNELS 3 Zrotation Xrotation Yrotation
                JOINT rRing2
                {
                  OFFSET -2.60934 -0.819778 -0.0198488
                  CHANNELS 3 Zrotation Xrotation Yrotation
                  End Site
                  {
                    OFFSET -2.33842 -0.294052 0.168128
                  }
                }
              }
              JOINT rPinky1
              {
                OFFSET -8.27202 -0.0477905 -0.4584
                CHANNELS 3 Zrotation Xrotation Yrotation
                JOINT rPinky2
                {
                  OFFSET -1.82734 -0.647385 -0.700984
                  CHANNELS 3 Zrotation Xrotation Yrotation
                  End Site
                  {
                    OFFSET -1.69225 -0.51767 -0.607171
                  }
                }
              }
            }
          }
        }
      }
      JOINT lCollar
      {
        OFFSET 2.68224 19.2634 -4.8768
        CHANNELS 3 Zrotation Xrotation Yrotation
        JOINT lShldr
        {
          OFFSET 8.77824 -1.95073 1.46304
          CHANNELS 3 Zrotation Xrotation Yrotation
          JOINT lForeArm
          {
            OFFSET 28.1742 -1.7115 0.48768
            CHANNELS 3 Zrotation Xrotation Yrotation
            JOINT lHand
            {
              OFFSET 22.5879 0.773209 7.07136
              CHANNELS 3 Zrotation Xrotation Yrotation
              JOINT lThumb1
              {
                OFFSET 1.2192 -0.487915 3.41376
                CHANNELS 3 Zrotation Xrotation Yrotation
                JOINT lThumb2
                {
                  OFFSET 3.37035 -0.52449 3.41376
                  CHANNELS 3 Zrotation Xrotation Yrotation
                  End Site
                  {
                    OFFSET 1.78271 -1.18214 1.43049
                  }
                }
              }
              JOINT lIndex1
              {
                OFFSET 7.75947 0.938293 5.60832
                CHANNELS 3 Zrotation Xrotation Yrotation
                JOINT lIndex2
                {
                  OFFSET 2.54057 -0.884171 1.56538
                  CHANNELS 3 Zrotation Xrotation Yrotation
                  End Site
                  {
                    OFFSET 1.62519 -0.234802 1.16502
                  }
                }
              }
              JOINT lMid1
              {
                OFFSET 8.24714 1.18213 3.41376
                CHANNELS 3 Zrotation Xrotation Yrotation
                JOINT lMid2
                {
                  OFFSET 3.10165 -0.590103 1.0647
                  CHANNELS 3 Zrotation Xrotation Yrotation
                  End Site
                  {
                    OFFSET 2.48547 -0.328903 0.83742
                  }
                }
              }
              JOINT lRing1
              {
                OFFSET 8.82822 0.546677 1.51678
                CHANNELS 3 Zrotation Xrotation Yrotation
                JOINT lRing2
                {
                  OFFSET 2.60934 -0.819778 -0.0198488
                  CHANNELS 3 Zrotation Xrotation Yrotation
                  End Site
                  {
                    OFFSET 2.33842 -0.294052 0.168128
                  }
                }
              }
              JOINT lPinky1
              {
                OFFSET 8.27202 -0.0477905 -0.4584
                CHANNELS 3 Zrotation Xrotation Yrotation
                JOINT lPinky2
                {
                  OFFSET 1.82734 -0.647385 -0.700984
                  CHANNELS 3 Zrotation Xrotation Yrotation
                  End Site
                  {
                    OFFSET 1.69225 -0.51767 -0.607171
                  }
                }
              }
            }
          }
        }
      }
    }
  }
  JOINT rButtock
  {
    OFFSET -8.77824 4.35084 1.2192
    CHANNELS 3 Zrotation Xrotation Yrotation
    JOINT rThigh
    {
      OFFSET 0 -1.70687 -2.19456
      CHANNELS 3 Zrotation Xrotation Yrotation
      JOINT rShin
      {
        OFFSET 0 -36.8199 0.73152
        CHANNELS 3 Zrotation Xrotation Yrotation
        JOINT rFoot
        {
          OFFSET 0.73152 -45.1104 -5.12064
          CHANNELS 3 Zrotation Xrotation Yrotation
          End Site
          {
            OFFSET -1.1221 -3.69964 12.103
          }
        }
      }
    }
  }
  JOINT lButtock
  {
    OFFSET 8.77824 4.35084 1.2192
    CHANNELS 3 Zrotation Xrotation Yrotation
    JOINT lThigh
    {
      OFFSET 0 -1.70687 -2.19456
      CHANNELS 3 Zrotation Xrotation Yrotation
      JOINT lShin
      {
        OFFSET 0 -36.8199 0.73152
        CHANNELS 3 Zrotation Xrotation Yrotation
        JOINT lFoot
        {
          OFFSET -0.73152 -45.1104 -5.12064
          CHANNELS 3 Zrotation Xrotation Yrotation
          End Site
          {
            OFFSET 1.1221 -3.69964 12.103
          }
        }
      }
    }
  }
}
MOTION
Frames:	4
Frame Time:	0.00833333
-113.289 81.3869 -25.4808 -157.953 72.434 -149.257 -10.898 25.6584 1.08904 1.37304 -6.36547 -0.0281829 3.91281 16.8675 0.230132 13.834 -62.3423 11.2643 -0.0 0.0 0.0 -0.0 0.0 0.0 3.61568e-13 -6.82666e-13 -3.03227e-13 82.9934 39.7797 -13.104 -21.5431 -15.0859 42.5726 -0.0392768 -5.64503 -0.795963 -3.40314e-09 -1.81131e-09 -1.49104e-10 -5.88216e-09 -3.1272e-09 -2.74843e-10 -3.40314e-09 -1.81131e-09 -1.49112e-10 7.73091 5.47488 0.417314 -3.40314e-09 -1.81131e-09 -1.49101e-10 2.90554 0.965183 0.102902 -3.40314e-09 -1.81131e-09 -1.49103e-10 10.2786 0.731801 0.0259123 -3.40315e-09 -1.81131e-09 -1.49094e-10 2.22167 -0.733487 -0.20892 3.61602e-13 -6.8268e-13 -3.03498e-13 -65.7823 31.6633 2.43034 24.3591 -19.7834 -50.7663 0.0702857 -7.54471 1.06657 -8.92886e-10 -1.58783e-09 -6.95534e-10 -1.53245e-09 -2.74821e-09 -1.21063e-09 -8.92894e-10 -1.58783e-09 -6.95517e-10 -7.73091 5.47488 -0.417314 -8.92888e-10 -1.58783e-09 -6.95523e-10 -2.90554 0.965183 -0.102902 -8.92895e-10 -1.58783e-09 -6.95526e-10 -10.2786 0.731801 -0.0259123 -8.92883e-10 -1.58783e-09 -6.9553e-10 -2.22167 -0.733487 0.20892 -2.03217e-16 0.0 -3.88251e-19 3.52491 -32.8459 9.56534 -0.892088 55.4365 0.973429 1.5386 -4.38327 8.74451 2.03217e-16 0.0 3.88251e-19 5.7064 -33.9858 -3.42934 0.369894 43.0288 -0.694211 -2.57338 -20.9349 -6.6539
-112.796 81.4273 -25.6541 -157.804 72.5523 -149.123 -10.8931 25.6652 0.900496 1.53229 -6.36926 -0.0653591 3.82389 16.7563 0.308839 14.4845 -62.3317 11.8542 -0.0 0.0 0.0 -0.0 0.0 0.0 3.41665e-13 -2.16041e-13 -1.73561e-13 82.9604 39.5991 -13.2199 -21.5322 -15.07 42.5445 -0.0381547 -5.56041 -0.783959 -2.94887e-09 -1.36786e-09 7.36018e-11 -5.09926e-09 -2.36193e-09 1.10673e-10 -2.94887e-09 -1.36787e-09 7.35956e-11 7.73091 5.47488 0.417314 -2.94887e-09 -1.36787e-09 7.36094e-11 2.90554 0.965183 0.102902 -2.94886e-09 -1.36787e-09 7.36034e-11 10.2786 0.731801 0.0259123 -2.94888e-09 -1.36786e-09 7.36106e-11 2.22167 -0.733487 -0.20892 3.41726e-13 -2.16066e-13 -1.73781e-13 -65.545 31.8479 2.24688 24.5236 -20.1093 -51.3078 0.0740049 -7.73931 1.09442 -6.21549e-10 -2.41664e-09 -2.12095e-09 -1.05343e-09 -4.1774e-09 -3.67064e-09 -6.21556e-10 -2.41664e-09 -2.12093e-09 -7.73091 5.47488 -0.417314 -6.21551e-10 -2.41664e-09 -2.12093e-09 -2.90554 0.965183 -0.102902 -6.21556e-10 -2.41664e-09 -2.12094e-09 -10.2786 0.731801 -0.0259123 -6.21547e-10 -2.41663e-09 -2.12094e-09 -2.22167 -0.733487 0.20892 -2.03217e-16 0.0 -3.88251e-19 3.74903 -33.5651 9.91715 -0.854597 54.6969 0.944207 1.60992 -5.12719 8.68314 2.03217e-16 0.0 3.88251e-19 5.63947 -33.4344 -3.50768 0.358279 42.8181 -0.726993 -2.4271 -21.2293 -6.30311
-112.295 81.4813 -25.8314 -157.66 72.6812 -148.991 -10.8657 25.6574 0.7161 1.68626 -6.37124 -0.100595 3.7402 16.6396 0.396667 15.1318 -62.2924 12.4555 -0.0 0.0 0.0 -0.0 0.0 0.0 2.94833e-13 2.55241e-13 -3.41805e-14 82.9366 39.3958 -13.3488 -21.5089 -15.0365 42.4834 -0.0363693 -5.42849 -0.765246 -2.29865e-09 -8.25211e-10 3.21354e-10 -3.97778e-09 -1.42556e-09 5.40159e-10 -2.29864e-09 -8.25219e-10 3.2135e-10 7.73091 5.47488 0.417314 -2.29865e-09 -8.25218e-10 3.21365e-10 2.90554 0.965183 0.102902 -2.29864e-09 -8.25219e-10 3.21356e-10 10.2786 0.731801 0.0259123 -2.29865e-09 -8.25215e-10 3.21361e-10 2.22167 -0.733487 -0.20892 2.9491e-13 2.55208e-13 -3.43517e-14 -65.3291 32.0654 2.10843 24.6761 -20.4181 -51.8208 0.078239 -7.95411 1.12519 -2.79307e-10 -3.21358e-09 -3.50414e-09 -4.52519e-10 -5.55175e-09 -6.05711e-09 -2.79312e-10 -3.21358e-09 -3.50414e-09 -7.73091 5.47488 -0.417314 -2.79309e-10 -3.21358e-09 -3.50413e-09 -2.90554 0.965183 -0.102902 -2.79312e-10 -3.21358e-09 -3.50413e-09 -10.2786 0.731801 -0.0259123 -2.79304e-10 -3.21358e-09 -3.50414e-09 -2.22167 -0.733487 0.20892 -2.03217e-16 0.0 -3.88251e-19 3.97876 -34.2057 10.2839 -0.811948 53.8082 0.911092 1.66445 -5.79819 8.61503 2.03217e-16 0.0 3.88251e-19 5.58114 -32.8326 -3.57497 0.345831 42.5576 -0.757889 -2.2741 -21.5088 -5.94712
-111.774 81.5536 -26.0155 -157.475 72.8385 -148.835 -10.8054 25.6422 0.540366 1.82207 -6.38387 -0.133052 3.66711 16.518 0.487103 15.7354 -62.2072 13.0211 -0.0 0.0 0.0 -0.0 0.0 0.0 2.00347e-13 6.00746e-13 8.91052e-14 82.9316 39.1664 -13.4897 -21.4694 -14.9804 42.3789 -0.0340187 -5.25729 -0.740965 -1.35923e-09 -2.04096e-10 5.64205e-10 -2.35605e-09 -3.539e-10 9.62772e-10 -1.35922e-09 -2.04106e-10 5.64202e-10 7.73091 5.47488 0.417314 -1.35923e-09 -2.04105e-10 5.64218e-10 2.90554 0.965183 0.102902 -1.35922e-09 -2.04106e-10 5.64207e-10 10.2786 0.731801 0.0259123 -1.35923e-09 -2.04101e-10 5.64211e-10 2.22167 -0.733487 -0.20892 2.00417e-13 6.00709e-13 8.89561e-14 -65.1298 32.33 2.01709 24.8122 -20.6988 -52.2922 0.0827265 -8.17758 1.15723 1.62022e-10 -3.55187e-09 -4.29964e-09 3.14822e-10 -6.13413e-09 -7.42739e-09 1.62019e-10 -3.55187e-09 -4.29963e-09 -7.73091 5.47488 -0.417314 1.62021e-10 -3.55187e-09 -4.29963e-09 -2.90554 0.965183 -0.102902 1.62019e-10 -3.55187e-09 -4.29963e-09 -10.2786 0.731801 -0.0259123 1.62026e-10 -3.55187e-09 -4.29963e-09 -2.22167 -0.733487 0.20892 -2.03217e-16 0.0 -3.88251e-19 4.21717 -34.7497 10.6568 -0.765437 52.7659 0.874947 1.69148 -6.38668 8.50126 2.03217e-16 0.0 3.88251e-19 5.53565 -32.1669 -3.63599 0.332511 42.2253 -0.785143 -2.12091 -21.7584 -5.6016
